<svg xmlns="http://www.w3.org/2000/svg" width="16" height="14.72" viewBox="0 0 16 14.72"><defs><style>.a{fill:#79758c;}</style></defs><g transform="translate(-0.001 1.332)"><path class="a" d="M13.8-1.332H2.2A2.2,2.2,0,0,0,0,.868v7.1a2.2,2.2,0,0,0,2.192,2.2v3.222l4.63-3.222H13.8a2.2,2.2,0,0,0,2.2-2.2V.868a2.2,2.2,0,0,0-2.2-2.2Zm1.262,9.3A1.264,1.264,0,0,1,13.8,9.229H6.528l-3.4,2.365V9.229H2.2A1.264,1.264,0,0,1,.938,7.967V.868A1.264,1.264,0,0,1,2.2-.395H13.8A1.264,1.264,0,0,1,15.063.868Zm0,0"/><path class="a" d="M171.293,131.172h7.435v.937h-7.435Zm0,0" transform="translate(-167.01 -129.191)"/><path class="a" d="M171.293,211.172h7.435v.938h-7.435Zm0,0" transform="translate(-167.01 -207.191)"/><path class="a" d="M171.293,291.172h7.435v.938h-7.435Zm0,0" transform="translate(-167.01 -285.192)"/></g></svg>