<svg id="Layer_1" data-name="Layer 1" xmlns="http://www.w3.org/2000/svg" viewBox="0 0 684.37 133.24"><defs><style>.cls-1{fill:#fff;}</style></defs><title>CrossCheck Logo White</title><path class="cls-1" d="M571.48,129.47a12.84,12.84,0,0,1-18.17-18.16L581.6,83l9.88,9.88a18.51,18.51,0,0,0,11.23,5.34ZM102.19,66.36a23.19,23.19,0,0,0-13.36,4.13,14.06,14.06,0,0,0-2.23,2.13v-.75a5.68,5.68,0,0,0-5.83-5.51,5.57,5.57,0,0,0-5.62,5.51v41.79a5.66,5.66,0,0,0,5.62,5.62,5.78,5.78,0,0,0,5.83-5.62V93.51A32.61,32.61,0,0,1,91,84.6a15.93,15.93,0,0,1,4.88-5.09,10.08,10.08,0,0,1,6.36-2,5.65,5.65,0,0,0,5.62-5.62,5.5,5.5,0,0,0-5.47-5.53Zm21.07,15.48a15.45,15.45,0,0,1,10.18-4,15,15,0,0,1,9.76,4,16,16,0,0,1,4.13,11,16.31,16.31,0,0,1-4.13,11.24,13.89,13.89,0,0,1-9.76,3.93,14.35,14.35,0,0,1-10.18-3.93,17.13,17.13,0,0,1-3.82-11.24A16.74,16.74,0,0,1,123.26,81.84Zm10.18,37.75h0a23.46,23.46,0,0,0,17.71-8,25.73,25.73,0,0,0,7.42-18.67,26.52,26.52,0,0,0-7.42-18.56,23.49,23.49,0,0,0-17.71-8.06,24.77,24.77,0,0,0-18.24,8.06,27.38,27.38,0,0,0-7.32,18.56,26.5,26.5,0,0,0,7.32,18.67A24.78,24.78,0,0,0,133.44,119.59ZM166.07,112h0c4.24,3.39,10.6,7.21,18.87,7.32A24,24,0,0,0,198.73,115a15.27,15.27,0,0,0,6.68-12.3,13.83,13.83,0,0,0-2-7,16.48,16.48,0,0,0-7.53-6.25,38,38,0,0,0-9.88-3h-.1l-.11-.1a21.86,21.86,0,0,1-7.74-2.55,2.92,2.92,0,0,1-1.17-1.06,1.16,1.16,0,0,1-.21-.85,3.24,3.24,0,0,1,1.7-2.44,10.77,10.77,0,0,1,6.36-1.91c3.39,0,6.36,1.7,9.76,3.93A5.6,5.6,0,0,0,202.28,80l.05-.07a5.85,5.85,0,0,0-1.69-7.84c-3.4-2.34-8.59-5.84-15.91-5.84a22.8,22.8,0,0,0-13,3.93,14.87,14.87,0,0,0-6.26,11.66,12.86,12.86,0,0,0,1.8,6.68,17.71,17.71,0,0,0,7.32,6.15,40.72,40.72,0,0,0,9.23,2.76h.1c3.82.74,7,1.91,8.49,3,.84.53,1.27.95,1.37,1.27a1.55,1.55,0,0,1,.32,1.06c0,.85-.42,1.91-1.91,3.18a14,14,0,0,1-7.21,2c-4.13.11-8.91-2.33-11.66-4.67a5.53,5.53,0,0,0-7.8.6,2.43,2.43,0,0,0-.2.25A5.66,5.66,0,0,0,166.07,112Zm42.38,0h0c4.24,3.39,10.6,7.21,18.88,7.32A24.06,24.06,0,0,0,241.11,115a15.27,15.27,0,0,0,6.68-12.3,13.83,13.83,0,0,0-2-7,16.48,16.48,0,0,0-7.53-6.25,37.91,37.91,0,0,0-9.86-3.08h-.11l-.11-.1a21.86,21.86,0,0,1-7.74-2.55,2.76,2.76,0,0,1-1.16-1.06,1.09,1.09,0,0,1-.22-.85,3.24,3.24,0,0,1,1.7-2.44,10.77,10.77,0,0,1,6.36-1.91c3.4,0,6.37,1.7,9.76,3.93A5.62,5.62,0,0,0,244.7,80l0,0a5.84,5.84,0,0,0-1.7-7.84c-3.39-2.34-8.59-5.84-15.91-5.84a22.8,22.8,0,0,0-13,3.93,14.87,14.87,0,0,0-6.26,11.66,12.86,12.86,0,0,0,1.8,6.68A17.71,17.71,0,0,0,217,94.64a40.72,40.72,0,0,0,9.23,2.76h.1c3.82.74,7,1.91,8.49,3,.85.53,1.27.95,1.38,1.27a1.61,1.61,0,0,1,.32,1.06c0,.85-.43,1.91-1.91,3.18a14,14,0,0,1-7.21,2c-4.14.11-8.91-2.33-11.67-4.67a5.52,5.52,0,0,0-7.78.64l-.17.21a5.66,5.66,0,0,0,.69,7.91ZM38.92,119.28A39.69,39.69,0,0,0,63.42,111a6.27,6.27,0,0,0,1.06-8.49A6.45,6.45,0,0,0,56,101.35a26.64,26.64,0,0,1-17.07,5.84,28.07,28.07,0,0,1-19.09-7.64A25.79,25.79,0,0,1,12.09,81.1a26.16,26.16,0,0,1,7.74-18.45A28.08,28.08,0,0,1,38.92,55,26.42,26.42,0,0,1,56,60.84a6.21,6.21,0,0,0,8.49-1.16,6.29,6.29,0,0,0-1.06-8.49,39.76,39.76,0,0,0-24.5-8.27C17.71,43,.11,60.1,0,81.1.11,102.2,17.71,119.28,38.92,119.28ZM627.67,83,656,111.31a12.84,12.84,0,0,1-18.17,18.16L606.56,98.24a18.51,18.51,0,0,0,11.23-5.34Z"/><path class="cls-1" d="M338.5,89.48a11.4,11.4,0,1,1,22.8,0v24a5.83,5.83,0,1,0,11.66,0v-24a23.2,23.2,0,0,0-23.12-23.23,24,24,0,0,0-11.34,3.08V50.88a5.89,5.89,0,1,0-11.78,0v62.56a6.31,6.31,0,0,0,.22,1.49,6,6,0,0,0,5.62,4.35,5.85,5.85,0,0,0,5.94-5.76v-24Zm66.66-13.15c9.23.74,14.64,7,15.7,11.24h-30C391.69,83.22,396.15,76.75,405.16,76.33Zm0,43c7.53,0,13.79-2.23,19-7,2.43-2.23,1.37-5.41,0-6.9-1.38-1.69-5.73-2-8,.32-2.65,2-7.21,3-11,2.65A16.31,16.31,0,0,1,395,103.58a13.91,13.91,0,0,1-3.6-7h33.7c3,0,5.2-1.69,5.51-4.24a2.8,2.8,0,0,0,.11-1h0v-.53C429.87,76.49,419,66.2,405.16,66.2c-14.53,0-25.77,12.09-25.87,26.51.1,14.48,11.34,26.46,25.87,26.57Zm56.91,0h0a29.25,29.25,0,0,0,16.87-5.62,5.87,5.87,0,0,0,1.16-7.85,5.76,5.76,0,0,0-8-1.17,17.2,17.2,0,0,1-10.08,3.4c-8.59,0-15.69-7-15.69-15.17s7.1-15.27,15.69-15.27A17,17,0,0,1,472.15,81a5.64,5.64,0,0,0,7.92-1l.08-.11A5.82,5.82,0,0,0,479,72.1a28,28,0,0,0-16.87-5.84c-14.63.11-26.93,11.88-26.93,26.62-.05,14.52,12.25,26.4,26.88,26.4Zm34.43,0a5.91,5.91,0,0,0,5.94-5.84v-9.33l5.83-5.83,15.59,18.88a5.68,5.68,0,0,0,4.46,2.12A5.56,5.56,0,0,0,532,117.9a5.89,5.89,0,0,0,.85-8.27L516.55,90l15.9-15.91a5.75,5.75,0,0,0,.14-8.13l-.14-.14a6,6,0,0,0-8.27,0L502.44,87.57V50.88A5.92,5.92,0,0,0,496.5,45h0a5.81,5.81,0,0,0-5.83,5.79V113.4a5.81,5.81,0,0,0,5.74,5.88h.09Zm-206,0A39.66,39.66,0,0,0,315,111a6.26,6.26,0,0,0,1.06-8.49,6.44,6.44,0,0,0-8.48-1.17,26.67,26.67,0,0,1-17.08,5.84,28.07,28.07,0,0,1-19.09-7.64,25.78,25.78,0,0,1-7.74-18.45,26.16,26.16,0,0,1,7.74-18.45A28,28,0,0,1,290.49,55a26.49,26.49,0,0,1,17.08,5.83A6.09,6.09,0,0,0,315,51.19a39.74,39.74,0,0,0-24.5-8.27C269.28,43,251.68,60.1,251.57,81.1c.11,21.1,17.71,38.18,38.92,38.18ZM662.5,3.81A12.85,12.85,0,1,1,681,21.67l-.31.31L613.72,88.82a12.84,12.84,0,0,1-18.16,0h0L560.32,53.59a12.84,12.84,0,0,1,18.16-18.17h0l26.15,26.15Z"/><path class="cls-1" d="M681.39,66h0a1.6,1.6,0,0,0-1.27.65l-5.59,7.76-5.6-7.76a1.6,1.6,0,0,0-1.24-.65h0a1.61,1.61,0,0,0-1.61,1.61V84.14a1.61,1.61,0,0,0,3.22,0V72.26l4,5.63a1.63,1.63,0,0,0,1.29.66h0a1.61,1.61,0,0,0,1.27-.66l4-5.63V84.14a1.61,1.61,0,0,0,3.22,0V67.52a1.61,1.61,0,0,0-1.61-1.61m-20,1.61a1.61,1.61,0,0,0-1.61-1.61h-12a1.61,1.61,0,0,0,0,3.21h4.44v15a1.61,1.61,0,0,0,3.22,0v-15H660a1.61,1.61,0,0,0,1.37-1.57Z"/></svg>