<svg xmlns="http://www.w3.org/2000/svg" width="12.623" height="12.631" viewBox="0 0 12.623 12.631"><defs><style>.a{fill:none;opacity:0;}.b{fill:#707070;}</style></defs><g transform="translate(-46.508 -205.465)"><rect class="a" width="12" height="12.632" transform="translate(47.131 205.465)"/><path class="b" d="M11.836,15.156V13.894H6.156V12L3,14.525l3.156,2.525V15.156Z" transform="translate(43.508 197.16)"/><path class="b" d="M20.443,4.5h-5.68A1.263,1.263,0,0,0,13.5,5.762V8.287h1.262V5.762h5.68V14.6h-5.68V12.074H13.5V14.6a1.263,1.263,0,0,0,1.262,1.262h5.68A1.263,1.263,0,0,0,21.705,14.6V5.762A1.263,1.263,0,0,0,20.443,4.5Z" transform="translate(37.426 201.504)"/></g></svg>