<svg xmlns="http://www.w3.org/2000/svg" width="12.031" height="11.996" viewBox="0 0 12.031 11.996"><defs><style>.a,.b{fill:#707070;}.a{opacity:0;}</style></defs><g transform="translate(-38 -194)"><rect class="a" width="12.031" height="11.996" transform="translate(38 194)"/><path class="b" d="M5.98,3.407A1.557,1.557,0,0,0,4.419,4.968,1.557,1.557,0,0,0,5.98,6.529,1.557,1.557,0,0,0,7.541,4.968,1.557,1.557,0,0,0,5.981,3.407ZM6,10.142a8.456,8.456,0,0,0-3.052.579q-1.508.579-1.508,1v.807h9.12V11.72q0-.421-1.508-1A8.451,8.451,0,0,0,6,10.142ZM5.98,1.969A2.89,2.89,0,0,1,8.1,2.846,2.893,2.893,0,0,1,8.98,4.968,2.889,2.889,0,0,1,8.1,7.09a2.892,2.892,0,0,1-2.122.877A2.892,2.892,0,0,1,3.858,7.09a2.889,2.889,0,0,1-.877-2.122,2.892,2.892,0,0,1,.877-2.122,2.891,2.891,0,0,1,2.122-.877Zm0,6.735a10.65,10.65,0,0,1,2.438.316,7.674,7.674,0,0,1,2.438,1.035,2.021,2.021,0,0,1,1.1,1.666v2.245H0V11.72a2.022,2.022,0,0,1,1.1-1.666A7.668,7.668,0,0,1,3.543,9.02,10.677,10.677,0,0,1,5.981,8.7Z" transform="translate(38.035 192.031)"/></g></svg>